<?xml version="1.0" encoding="UTF-8" standalone="no"?>
<!-- Created with Inkscape (http://www.inkscape.org/) -->

<svg
   width="183.49023mm"
   height="48.22958mm"
   viewBox="0 0 183.49023 48.22958"
   version="1.1"
   id="svg1"
   xmlns="http://www.w3.org/2000/svg"
   xmlns:svg="http://www.w3.org/2000/svg">
  <defs
     id="defs1" />
  <g
     id="layer1"
     transform="translate(-4.663109,-100.21196)">
    <circle
       style="fill:#000000;stroke-width:0.264583"
       id="path1"
       cx="12.989979"
       cy="136.37827"
       r="8.32687" />
    <path
       id="rect5"
       style="fill:#000000;stroke-width:24.973;stroke-dasharray:none"
       d="m 23.348962,100.21197 c -1.884958,0 -3.402376,1.51742 -3.402376,3.40238 v 22.4131 c 0,1.88496 1.517418,3.40238 3.402376,3.40238 h 22.413103 c 1.884958,0 3.402376,-1.51742 3.402376,-3.40238 v -22.4131 c 0,-1.88496 -1.517418,-3.40238 -3.402376,-3.40238 z m 11.30267,6.39083 a 8.32687,8.32687 0 0 1 8.32714,8.32714 8.32687,8.32687 0 0 1 -8.32714,8.32662 8.32687,8.32687 0 0 1 -8.326624,-8.32662 8.32687,8.32687 0 0 1 8.326624,-8.32714 z" />
    <path
       style="fill:#000000;stroke-width:24.973;stroke-dasharray:none"
       d="m 12.407616,130.60648 13.191254,-13.19125 6.269113,6.39971 -15.411566,15.41157 z"
       id="path11" />
    <text
       xml:space="preserve"
       style="font-size:44.0158px;line-height:39.9;text-align:start;writing-mode:lr-tb;direction:ltr;text-anchor:start;fill:#000000;stroke-width:31.1587;stroke-dasharray:none"
       x="55.822399"
       y="131.09103"
       id="text13"
       transform="scale(0.94435948,1.0589188)"><tspan
         id="tspan13"
         style="font-style:normal;font-variant:normal;font-weight:bold;font-stretch:normal;font-size:44.0158px;line-height:39.9;font-family:Damascus;-inkscape-font-specification:'Damascus Bold';stroke-width:31.1587"
         x="55.822399"
         y="131.09103">codag</tspan></text>
  </g>
</svg>
