<?xml version="1.0" encoding="UTF-8"?>
<svg width="128" height="128" viewBox="0 0 128 128" xmlns="http://www.w3.org/2000/svg">
  <!-- Background circle for chat participant -->
  <circle cx="64" cy="64" r="64" fill="#6366f1"/>

  <!-- Codag logo scaled and centered with padding -->
  <g transform="translate(24, 24) scale(1.8)">
    <!-- Small circle (bottom left) -->
    <circle fill="#ffffff" cx="8.3" cy="36.2" r="8.3"/>
    <!-- Rounded square with hollow center (top right) -->
    <path fill="#ffffff" d="m 18.7,0 c -1.9,0 -3.4,1.5 -3.4,3.4 v 22.4 c 0,1.9 1.5,3.4 3.4,3.4 h 22.4 c 1.9,0 3.4,-1.5 3.4,-3.4 v -22.4 c 0,-1.9 -1.5,-3.4 -3.4,-3.4 z m 11.3,6.4 a 8.3,8.3 0 0 1 8.3,8.3 8.3,8.3 0 0 1 -8.3,8.3 8.3,8.3 0 0 1 -8.3,-8.3 8.3,8.3 0 0 1 8.3,-8.3 z"/>
    <!-- Diagonal connector -->
    <path fill="#ffffff" d="m 7.7,30.4 13.2,-13.2 6.3,6.4 -15.4,15.4 z"/>
  </g>
</svg>
